<mxfile host="app.diagrams.net" modified="2024-05-31T12:47:53.958Z" agent="Mozilla/5.0 (Macintosh; Intel Mac OS X 10_15_7) AppleWebKit/537.36 (KHTML, like Gecko) Chrome/121.0.0.0 Safari/537.36" version="24.4.13" etag="lM7LxRJf7Vk6XeraFxRQ" type="github">
  <diagram name="第 1 页" id="G-lDBLwQXLnMhGLpo7Bu">
    <mxGraphModel>
      <root>
        <mxCell id="0" />
        <mxCell id="1" parent="0" />
      </root>
    </mxGraphModel>
  </diagram>
</mxfile>
